<svg width="264" height="264" viewBox="0 0 264 264" fill="none" xmlns="http://www.w3.org/2000/svg">
<path fill-rule="evenodd" clip-rule="evenodd" d="M254.21 160.692C256.046 157.703 253.751 154.226 250.243 154.226H202.644C199.883 154.226 197.644 156.464 197.644 159.226V175.367C197.644 177.519 199.088 179.358 200.83 180.622C212.554 189.132 211.966 219.111 186.108 219.111C160.508 218.618 161.822 188.534 171.861 180.712C173.788 179.209 175.671 177.179 175.671 174.735V142.129C175.854 139.196 177.868 133.111 184.46 132.231C190.633 131.407 232.928 131.805 257.227 132.16C259.864 132.198 262.089 130.183 261.919 127.551C261.271 117.532 256.548 101.142 241.125 89.1983C239.466 87.9137 238.655 85.775 239.081 83.7208C247.272 44.2999 219.236 28.809 200.428 25.1309C197.92 24.6403 196.066 22.4795 195.39 20.0147C190.22 1.14425 153.463 -10.1552 143.985 23.8107C143.87 24.2263 143.81 24.6743 143.81 25.1058V61.796C143.81 64.5575 146.049 66.796 148.81 66.796H164.701C166.692 66.796 168.438 65.5595 169.703 64.0217C178.286 53.5887 206.011 51.4457 207.532 78.3434C207.715 84.7585 204.016 98.0288 187.756 99.7884C183.119 100.109 173.846 98.8631 169.521 92.0973C168.348 90.2622 166.501 88.7909 164.323 88.7909H147.712C144.95 88.7909 142.712 91.0295 142.712 93.7909V235.057C142.712 244.405 143.7 262.001 163.037 262.001C178.228 262.001 184.016 252.95 185.622 245.514C186.248 242.615 188.681 240.155 191.644 240.009C212.397 238.982 243.687 226.258 238.698 180.536C238.485 178.592 239.366 176.662 240.931 175.489C246.935 170.987 251.361 165.329 254.21 160.692ZM9.78991 103.309C7.95328 106.298 10.2484 109.776 13.7566 109.776H61.3554C64.1169 109.776 66.3554 107.537 66.3554 104.776V88.6342C66.3554 86.4826 64.9111 84.6431 63.1699 83.3792C51.4458 74.8693 52.034 44.8908 77.8913 44.8908C103.491 45.3837 102.177 75.4675 92.1388 83.29C90.2111 84.7922 88.3284 86.8226 88.3284 89.2665V121.873C88.1453 124.806 86.1311 130.891 79.5392 131.771C73.3668 132.595 31.0717 132.197 6.77235 131.842C4.1351 131.804 1.91047 133.818 2.08063 136.45C2.72836 146.469 7.4518 162.86 22.8747 174.803C24.5335 176.088 25.3448 178.227 24.918 180.281C16.728 219.702 44.764 235.193 63.5712 238.871C66.0794 239.361 67.9338 241.522 68.6091 243.987C73.7795 262.857 110.536 274.157 120.014 240.191C120.13 239.775 120.189 239.327 120.189 238.896V202.206C120.189 199.444 117.951 197.206 115.189 197.206H99.2985C97.3072 197.206 95.5612 198.442 94.2961 199.98C85.7138 210.413 57.9886 212.556 56.4676 185.658C56.2845 179.243 59.9833 165.973 76.2433 164.213C80.8805 163.893 90.1537 165.138 94.4782 171.904C95.6512 173.739 97.4983 175.211 99.6762 175.211H116.288C119.049 175.211 121.288 172.972 121.288 170.211V28.9446C121.288 19.5967 120.299 2.0008 100.963 2.0008C85.7711 2.0008 79.9832 11.052 78.3776 18.4875C77.7516 21.3864 75.318 23.8463 72.3559 23.9928C51.6022 25.0195 20.3121 37.7432 25.3018 83.4653C25.514 85.4099 24.633 87.3392 23.068 88.5128C17.0649 93.0142 12.6389 98.6728 9.78991 103.309Z" fill="#9F95FF"/>
<path d="M186.108 219.111L186.079 220.611L186.094 220.611H186.108V219.111ZM175.671 142.129L174.174 142.035L174.171 142.082V142.129H175.671ZM184.46 132.231L184.659 133.718L184.46 132.231ZM207.532 78.3434L209.031 78.3006L209.031 78.2796L209.029 78.2587L207.532 78.3434ZM187.756 99.7884L187.859 101.285L187.889 101.283L187.918 101.28L187.756 99.7884ZM77.8913 44.8908L77.9201 43.3911L77.9057 43.3908H77.8913V44.8908ZM88.3284 121.873L89.8255 121.966L89.8284 121.92V121.873H88.3284ZM79.5392 131.771L79.3408 130.284L79.5392 131.771ZM56.4676 185.658L54.9682 185.701L54.9688 185.722L54.97 185.743L56.4676 185.658ZM76.2433 164.213L76.14 162.717L76.1109 162.719L76.0819 162.722L76.2433 164.213ZM23.068 88.5128L22.1681 87.3127L23.068 88.5128ZM94.4782 171.904L93.2143 172.712L94.4782 171.904ZM94.2961 199.98L93.1377 199.027L94.2961 199.98ZM22.8747 174.803L23.7931 173.617L22.8747 174.803ZM24.918 180.281L26.3866 180.586L24.918 180.281ZM6.77235 131.842L6.75044 133.342L6.77235 131.842ZM9.78991 103.309L8.5119 102.524L9.78991 103.309ZM238.698 180.536L240.189 180.374L238.698 180.536ZM240.931 175.489L240.032 174.289L240.931 175.489ZM185.622 245.514L187.088 245.831L185.622 245.514ZM191.644 240.009L191.718 241.507L191.644 240.009ZM143.985 23.8107L145.43 24.2139L143.985 23.8107ZM200.428 25.1309L200.14 26.603L200.428 25.1309ZM195.39 20.0147L193.944 20.4111L195.39 20.0147ZM120.014 240.191L118.569 239.788L120.014 240.191ZM239.081 83.7208L240.55 84.0259L239.081 83.7208ZM171.861 180.712L170.939 179.528L171.861 180.712ZM63.5712 238.871L63.2833 240.343L63.5712 238.871ZM68.6091 243.987L70.0558 243.591L68.6091 243.987ZM257.227 132.16L257.205 133.659L257.227 132.16ZM261.919 127.551L263.416 127.455L261.919 127.551ZM92.1388 83.29L91.2168 82.1068L92.1388 83.29ZM200.83 180.622L199.948 181.836L200.83 180.622ZM169.703 64.0217L170.862 64.9746L169.703 64.0217ZM254.21 160.692L252.932 159.907L254.21 160.692ZM63.1699 83.3792L62.2887 84.5932L63.1699 83.3792ZM202.644 155.726H250.243V152.726H202.644V155.726ZM199.144 175.367V159.226H196.144V175.367H199.144ZM186.108 220.611C192.876 220.611 198.116 218.642 201.93 215.443C205.731 212.253 208.01 207.929 209.026 203.385C210.04 198.848 209.809 194.043 208.55 189.799C207.293 185.567 204.977 181.779 201.711 179.408L199.948 181.836C202.545 183.721 204.551 186.872 205.674 190.653C206.793 194.424 206.997 198.709 206.098 202.73C205.2 206.745 203.216 210.447 200.002 213.145C196.799 215.832 192.269 217.611 186.108 217.611V220.611ZM170.939 179.528C168.099 181.741 166 185.41 164.811 189.526C163.615 193.666 163.291 198.413 164.146 202.938C165.002 207.469 167.052 211.839 170.662 215.114C174.288 218.403 179.37 220.481 186.079 220.611L186.137 217.611C180.047 217.494 175.693 215.627 172.678 212.892C169.648 210.143 167.855 206.411 167.094 202.381C166.332 198.346 166.619 194.075 167.693 190.359C168.773 186.619 170.603 183.593 172.783 181.895L170.939 179.528ZM174.171 142.129V174.735H177.171V142.129H174.171ZM184.262 130.744C180.479 131.249 177.972 133.273 176.42 135.57C174.897 137.822 174.28 140.344 174.174 142.035L177.168 142.222C177.246 140.98 177.727 138.993 178.905 137.25C180.054 135.551 181.85 134.093 184.659 133.718L184.262 130.744ZM257.249 130.66C245.096 130.482 228.441 130.294 214.05 130.253C206.856 130.233 200.221 130.249 194.996 130.322C189.817 130.395 185.913 130.524 184.262 130.744L184.659 133.718C186.093 133.526 189.791 133.396 195.038 133.322C200.238 133.249 206.854 133.233 214.042 133.253C228.417 133.294 245.059 133.482 257.205 133.659L257.249 130.66ZM240.206 90.3843C255.204 101.999 259.794 117.938 260.422 127.648L263.416 127.455C262.748 117.127 257.891 100.285 242.043 88.0124L240.206 90.3843ZM200.14 26.603C209.336 28.4013 220.711 33.0797 228.764 42.0259C236.754 50.9013 241.619 64.1324 237.613 83.4157L240.55 84.0259C244.734 63.8882 239.676 49.6634 230.994 40.0187C222.375 30.4447 210.328 25.5386 200.716 23.6588L200.14 26.603ZM145.43 24.2139C147.725 15.9915 151.626 10.6488 156.152 7.46096C160.684 4.26979 165.966 3.15023 171.176 3.59367C181.72 4.49106 191.561 11.7159 193.944 20.4111L196.837 19.6183C194.049 9.44301 182.927 1.58293 171.43 0.604474C165.62 0.109984 159.613 1.35477 154.425 5.00816C149.233 8.66487 144.985 14.647 142.541 23.4076L145.43 24.2139ZM145.31 61.796V25.1058H142.31V61.796H145.31ZM164.701 65.296H148.81V68.296H164.701V65.296ZM209.029 78.2587C208.634 71.2717 206.526 66.0271 203.322 62.3116C200.12 58.5974 195.92 56.5226 191.54 55.7088C182.889 54.1017 173.232 57.3707 168.545 63.0688L170.862 64.9746C174.757 60.2397 183.253 57.2207 190.992 58.6583C194.805 59.3668 198.358 61.1475 201.05 64.2705C203.741 67.392 205.669 71.9661 206.034 78.428L209.029 78.2587ZM187.918 101.28C196.491 100.352 201.874 96.3528 205.053 91.6519C208.191 87.0115 209.13 81.769 209.031 78.3006L206.032 78.3861C206.117 81.3329 205.298 85.9331 202.568 89.9715C199.878 93.9494 195.281 97.4653 187.595 98.2971L187.918 101.28ZM168.257 92.9052C170.667 96.6744 174.413 98.8425 178.058 100.027C181.701 101.21 185.373 101.456 187.859 101.285L187.653 98.2919C185.502 98.4404 182.219 98.2242 178.985 97.1735C175.753 96.1235 172.7 94.286 170.785 91.2895L168.257 92.9052ZM147.712 90.2909H164.323V87.2909H147.712V90.2909ZM144.212 235.057V93.7909H141.212V235.057H144.212ZM163.037 260.501C158.436 260.501 155.041 259.457 152.511 257.841C149.979 256.225 148.212 253.971 146.976 251.387C144.473 246.156 144.212 239.73 144.212 235.057H141.212C141.212 239.732 141.445 246.778 144.27 252.682C145.698 255.666 147.804 258.395 150.896 260.37C153.99 262.345 157.969 263.501 163.037 263.501V260.501ZM184.156 245.197C183.402 248.688 181.678 252.499 178.421 255.431C175.186 258.342 170.314 260.501 163.037 260.501V263.501C170.951 263.501 176.569 261.134 180.428 257.661C184.263 254.208 186.236 249.776 187.088 245.831L184.156 245.197ZM237.207 180.699C239.659 203.169 233.194 217.281 223.808 225.93C214.353 234.643 201.723 238.008 191.569 238.511L191.718 241.507C202.318 240.983 215.709 237.473 225.841 228.136C236.041 218.737 242.726 203.625 240.189 180.374L237.207 180.699ZM252.932 159.907C250.152 164.43 245.845 169.93 240.032 174.289L241.831 176.689C248.025 172.045 252.569 166.227 255.488 161.478L252.932 159.907ZM61.3554 108.276H13.7566V111.276H61.3554V108.276ZM64.8554 88.6342V104.776H67.8554V88.6342H64.8554ZM77.8913 43.3908C71.1232 43.3908 65.8832 45.3592 62.0697 48.5588C58.2681 51.7485 55.9897 56.0727 54.9737 60.6165C53.9592 65.1534 54.19 69.9581 55.4498 74.2022C56.7063 78.4349 59.0228 82.2226 62.2887 84.5932L64.051 82.1653C61.4549 80.2809 59.4484 77.1301 58.3258 73.3484C57.2066 69.5781 57.0022 65.2926 57.9014 61.2711C58.7991 57.2565 60.7833 53.5543 63.9979 50.857C67.2007 48.1698 71.7307 46.3908 77.8913 46.3908V43.3908ZM93.0608 84.4732C95.9008 82.2601 97.9996 78.5918 99.1888 74.4756C100.385 70.3359 100.708 65.5886 99.8536 61.0634C98.998 56.533 96.9472 52.1627 93.3371 48.8876C89.7118 45.5988 84.63 43.5203 77.9201 43.3911L77.8624 46.3905C83.9527 46.5078 88.3067 48.3746 91.3214 51.1095C94.3512 53.8582 96.1446 57.5902 96.9057 61.6201C97.6678 65.6553 97.3804 69.9265 96.3067 73.643C95.2261 77.383 93.3961 80.4086 91.2168 82.1068L93.0608 84.4732ZM89.8284 121.873V89.2665H86.8284V121.873H89.8284ZM79.7377 133.258C83.5209 132.753 86.0275 130.728 87.5799 128.432C89.1024 126.179 89.7199 123.657 89.8255 121.966L86.8313 121.78C86.7538 123.021 86.2727 125.008 85.0944 126.752C83.9459 128.451 82.1495 129.909 79.3408 130.284L79.7377 133.258ZM6.75044 133.342C18.9033 133.519 35.5583 133.708 49.9492 133.748C57.1438 133.769 63.7784 133.752 69.0035 133.679C74.1822 133.607 78.086 133.478 79.7377 133.258L79.3408 130.284C77.9062 130.475 74.2085 130.606 68.9615 130.679C63.761 130.752 57.1457 130.769 49.9577 130.748C35.583 130.708 18.9408 130.52 6.79425 130.342L6.75044 133.342ZM23.7931 173.617C8.79527 162.003 4.20527 146.064 3.5775 136.354L0.583753 136.547C1.25144 146.875 6.10833 163.717 21.9563 175.989L23.7931 173.617ZM63.8591 237.399C54.6638 235.6 43.289 230.922 35.2354 221.976C27.2456 213.1 22.3804 199.869 26.3866 180.586L23.4494 179.976C19.2656 200.113 24.3234 214.338 33.0058 223.983C41.6246 233.557 53.6714 238.463 63.2833 240.343L63.8591 237.399ZM118.569 239.788C116.275 248.01 112.374 253.353 107.847 256.541C103.316 259.732 98.0337 260.851 92.8236 260.408C82.2796 259.511 72.4382 252.286 70.0558 243.591L67.1625 244.383C69.9504 254.559 81.0727 262.419 92.5692 263.397C98.3792 263.892 104.387 262.647 109.574 258.993C114.767 255.337 119.014 249.355 121.459 240.594L118.569 239.788ZM118.689 202.206V238.896H121.689V202.206H118.689ZM99.2985 198.706H115.189V195.706H99.2985V198.706ZM54.97 185.743C55.3651 192.73 57.4737 197.974 60.677 201.69C63.879 205.404 68.0792 207.479 72.4599 208.293C81.1101 209.9 90.7672 206.631 95.4545 200.933L93.1377 199.027C89.2427 203.762 80.746 206.781 73.0078 205.343C69.1943 204.635 65.6416 202.854 62.9492 199.731C60.258 196.61 58.3306 192.035 57.9652 185.574L54.97 185.743ZM76.0819 162.722C67.5086 163.65 62.1255 167.649 58.9467 172.35C55.8088 176.99 54.8692 182.233 54.9682 185.701L57.967 185.615C57.8829 182.669 58.7011 178.068 61.4319 174.03C64.1218 170.052 68.718 166.536 76.4047 165.705L76.0819 162.722ZM95.7421 171.096C93.3329 167.327 89.5865 165.159 85.9415 163.975C82.2989 162.792 78.6264 162.545 76.14 162.717L76.3466 165.71C78.4974 165.561 81.7802 165.777 85.0146 166.828C88.2466 167.878 91.299 169.716 93.2143 172.712L95.7421 171.096ZM116.288 173.711H99.6762V176.711H116.288V173.711ZM119.788 28.9446V170.211H122.788V28.9446H119.788ZM100.963 3.5008C105.563 3.5008 108.959 4.54475 111.489 6.16043C114.02 7.77697 115.787 10.031 117.023 12.6147C119.527 17.8459 119.788 24.2717 119.788 28.9446H122.788C122.788 24.2696 122.555 17.2235 119.73 11.3198C118.302 8.33603 116.196 5.60684 113.104 3.63202C110.01 1.65635 106.031 0.500803 100.963 0.500803V3.5008ZM79.8438 18.8041C80.5975 15.3137 82.3213 11.5028 85.5789 8.57073C88.8135 5.65937 93.6852 3.5008 100.963 3.5008V0.500803C93.0489 0.500803 87.4307 2.86781 83.572 6.34092C79.7363 9.79328 77.7633 14.2258 76.9114 18.1709L79.8438 18.8041ZM26.793 83.3026C24.3407 60.8322 30.8056 46.7207 40.1916 38.0713C49.6461 29.3587 62.2767 25.9932 72.4301 25.491L72.2818 22.4946C61.6814 23.019 48.2901 26.5288 38.1586 35.8652C27.9584 45.2649 21.2732 60.3763 23.8107 83.6281L26.793 83.3026ZM11.0679 104.095C13.8474 99.5712 18.155 94.0717 23.9679 89.7128L22.1681 87.3127C15.9749 91.9566 11.4304 97.7743 8.5119 102.524L11.0679 104.095ZM23.8107 83.6281C23.9628 85.0219 23.3288 86.4424 22.1681 87.3127L23.9679 89.7128C25.9373 88.2361 27.0653 85.7979 26.793 83.3026L23.8107 83.6281ZM76.9114 18.1709C76.4002 20.5382 74.4401 22.3879 72.2818 22.4946L72.4301 25.491C76.196 25.3047 79.103 22.2346 79.8438 18.8041L76.9114 18.1709ZM116.288 176.711C119.878 176.711 122.788 173.801 122.788 170.211H119.788C119.788 172.144 118.221 173.711 116.288 173.711V176.711ZM93.2143 172.712C94.5365 174.781 96.7892 176.711 99.6762 176.711V173.711C98.2074 173.711 96.7659 172.698 95.7421 171.096L93.2143 172.712ZM99.2985 195.706C96.67 195.706 94.5409 197.321 93.1377 199.027L95.4545 200.933C96.5814 199.563 97.9445 198.706 99.2985 198.706V195.706ZM21.9563 175.989C23.1713 176.93 23.7571 178.495 23.4494 179.976L26.3866 180.586C26.9325 177.959 25.8957 175.246 23.7931 173.617L21.9563 175.989ZM6.79425 130.342C3.4223 130.293 0.348456 132.907 0.583753 136.547L3.5775 136.354C3.47248 134.729 4.8479 133.314 6.75044 133.342L6.79425 130.342ZM13.7566 108.276C12.5113 108.276 11.5428 107.665 11.0383 106.864C10.5471 106.084 10.4612 105.082 11.0679 104.095L8.5119 102.524C7.28203 104.526 7.42539 106.757 8.49966 108.463C9.56054 110.147 11.4938 111.276 13.7566 111.276V108.276ZM61.3554 111.276C64.9453 111.276 67.8554 108.366 67.8554 104.776H64.8554C64.8554 106.709 63.2884 108.276 61.3554 108.276V111.276ZM240.189 180.374C240.037 178.98 240.671 177.559 241.831 176.689L240.032 174.289C238.062 175.765 236.934 178.204 237.207 180.699L240.189 180.374ZM187.088 245.831C187.599 243.463 189.559 241.614 191.718 241.507L191.569 238.511C187.803 238.697 184.896 241.767 184.156 245.197L187.088 245.831ZM147.712 87.2909C144.122 87.2909 141.212 90.2011 141.212 93.7909H144.212C144.212 91.8579 145.779 90.2909 147.712 90.2909V87.2909ZM142.541 23.4076C142.387 23.9588 142.31 24.5427 142.31 25.1058H145.31C145.31 24.8059 145.352 24.4938 145.43 24.2139L142.541 23.4076ZM121.689 202.206C121.689 198.616 118.779 195.706 115.189 195.706V198.706C117.122 198.706 118.689 200.273 118.689 202.206H121.689ZM200.716 23.6588C198.908 23.3051 197.404 21.687 196.837 19.6183L193.944 20.4111C194.728 23.2721 196.932 25.9756 200.14 26.603L200.716 23.6588ZM121.459 240.594C121.613 240.043 121.689 239.459 121.689 238.896H118.689C118.689 239.196 118.647 239.508 118.569 239.788L121.459 240.594ZM242.043 88.0124C240.828 87.0714 240.242 85.5071 240.55 84.0259L237.613 83.4157C237.067 86.0429 238.104 88.7561 240.206 90.3843L242.043 88.0124ZM170.785 91.2895C169.463 89.221 167.21 87.2909 164.323 87.2909V90.2909C165.792 90.2909 167.234 91.3035 168.257 92.9052L170.785 91.2895ZM172.783 181.895C174.741 180.369 177.171 177.943 177.171 174.735H174.171C174.171 176.415 172.836 178.05 170.939 179.528L172.783 181.895ZM63.2833 240.343C65.0916 240.696 66.5957 242.315 67.1625 244.383L70.0558 243.591C69.2719 240.73 67.0672 238.026 63.8591 237.399L63.2833 240.343ZM257.205 133.659C260.577 133.709 263.651 131.094 263.416 127.455L260.422 127.648C260.527 129.273 259.152 130.687 257.249 130.66L257.205 133.659ZM91.2168 82.1068C89.2584 83.6329 86.8284 86.0584 86.8284 89.2665H89.8284C89.8284 87.5868 91.1637 85.9515 93.0608 84.4732L91.2168 82.1068ZM196.144 175.367C196.144 178.214 198.032 180.445 199.948 181.836L201.711 179.408C200.144 178.272 199.144 176.824 199.144 175.367H196.144ZM164.701 68.296C167.329 68.296 169.459 66.6805 170.862 64.9746L168.545 63.0688C167.418 64.4386 166.055 65.296 164.701 65.296V68.296ZM250.243 155.726C251.488 155.726 252.457 156.336 252.961 157.137C253.452 157.917 253.538 158.92 252.932 159.907L255.488 161.478C256.717 159.476 256.574 157.245 255.5 155.539C254.439 153.854 252.506 152.726 250.243 152.726V155.726ZM142.31 61.796C142.31 65.3859 145.22 68.296 148.81 68.296V65.296C146.877 65.296 145.31 63.729 145.31 61.796H142.31ZM67.8554 88.6342C67.8554 85.7881 65.9672 83.5562 64.051 82.1653L62.2887 84.5932C63.8551 85.7301 64.8554 87.1771 64.8554 88.6342H67.8554ZM202.644 152.726C199.054 152.726 196.144 155.636 196.144 159.226H199.144C199.144 157.293 200.711 155.726 202.644 155.726V152.726Z" fill="white"/>
</svg>
