<svg width="144" height="48" viewBox="0 0 144 48" fill="none" xmlns="http://www.w3.org/2000/svg">
<g id="faject 1" clip-path="url(#clip0_602_1225)">
<path id="Vector" fill-rule="evenodd" clip-rule="evenodd" d="M12.7819 0.170453C11.3516 1.03354 11.2911 2.87895 12.6201 5.11513C14.4709 8.22979 18.5099 11.7952 21.7281 13.1558C22.6416 13.5419 22.4673 13.5672 21.4913 13.19C19.2621 12.3288 16.8705 10.6531 14.2313 8.10301C12.7183 6.6411 11.6604 5.43456 11.1926 4.63726L10.9644 4.24822L10.6633 4.5397C10.3866 4.80772 10.3659 4.86814 10.4076 5.28794C10.4809 6.02737 11.1965 7.31018 12.0005 8.14378C13.8522 10.0637 18.1666 12.9571 21.522 14.5294C22.1943 14.8443 22.7158 15.1031 22.681 15.1042C22.4429 15.1127 20.4361 14.3145 19.1232 13.6894C16.345 12.3663 13.6974 10.7795 12.5088 9.72489C12.0996 9.36186 11.7914 9.16433 11.5825 9.13159C10.3755 8.94191 11.4555 11.1058 13.1114 12.1946C14.5008 13.1082 19.1316 15.124 22.2275 16.1627C22.8735 16.3795 23.3097 16.5581 23.1966 16.5597C22.6115 16.5679 18.5437 15.2794 15.7425 14.1988C14.4203 13.6888 12.6816 12.9037 12.5091 12.739C12.3794 12.6151 12.077 12.8119 12.077 13.0202C12.077 13.586 13.1872 14.7684 14.0733 15.1464C15.0498 15.5628 18.0048 16.2586 22.7914 17.1992C24.4988 17.5347 23.8644 17.4944 20.5356 17.0556C17.6792 16.6792 15.1069 16.2669 14.1683 16.0351C13.3786 15.84 13.3568 15.8651 13.7178 16.5551C14.0955 17.2765 14.4894 17.6168 15.0849 17.7354C16.0243 17.9226 17.537 18.0221 20.7707 18.1096C22.5282 18.1572 24.1565 18.2031 24.3891 18.2118C25.3826 18.2486 21.0738 18.4669 18.1626 18.5273C15.7845 18.5767 14.9906 18.6206 14.9906 18.7031C14.9906 18.8668 15.4541 19.2845 15.8822 19.5067C16.191 19.6667 16.4043 19.7 17.0582 19.6899C17.79 19.6785 21.4387 19.2896 23.8181 18.9695C24.8986 18.8242 25.3702 18.8062 24.906 18.9282C24.751 18.969 22.8795 19.3032 20.7472 19.6708C18.6151 20.0386 16.8704 20.3671 16.8704 20.4009C16.8703 20.4349 17.1117 20.5733 17.4067 20.7084C17.8774 20.924 18.0203 20.9479 18.5716 20.9031C19.3089 20.8432 21.3197 20.4005 24.0091 19.7058C25.0667 19.4327 25.9483 19.225 25.9684 19.2445C25.9988 19.274 23.2313 20.159 19.6193 21.2748C19.1929 21.4066 18.844 21.5402 18.844 21.5721C18.844 21.6762 19.3441 21.8529 19.7811 21.9031C20.0708 21.9363 20.4081 21.8928 20.8193 21.7693C21.6297 21.5262 24.2807 20.5839 25.6078 20.0675C26.1933 19.8395 26.689 19.6692 26.7091 19.6888C26.7502 19.7286 26.275 19.949 23.3356 21.2537C22.2133 21.7519 21.3074 22.2 21.3224 22.2495C21.3606 22.3759 22.0128 22.5535 22.4693 22.562C22.9067 22.57 23.6827 22.2259 25.9868 21.0029C27.8963 19.9893 27.8985 19.9883 27.833 20.0907C27.8021 20.1391 26.9108 20.744 25.8523 21.4348C24.7939 22.1257 23.9531 22.7304 23.9839 22.7786C24.0165 22.8298 24.3326 22.8448 24.745 22.8147C25.8456 22.734 26.4573 22.3947 27.7617 21.1411C28.3521 20.5736 28.8489 20.1226 28.8658 20.1389C28.9434 20.2142 27.7189 21.9033 27.3009 22.2976C26.2552 23.2837 24.8401 23.6289 23.5581 23.2108L22.9621 23.0164L22.5244 23.2626C20.7832 24.2415 18.8972 26.2638 17.5116 28.6376C16.6684 30.0823 15.8957 31.8047 15.1311 33.9446C12.8589 40.3037 9.90758 44.5486 6.62678 46.1762C4.34154 47.3101 2.42284 47.0472 1.58919 45.4862C1.02716 44.4339 1.61569 42.7463 2.72632 42.2257C3.30987 41.9521 4.19042 41.9976 4.98121 42.3423L5.54511 42.5879L5.17885 42.272C4.62979 41.7986 3.89793 41.5617 3.13966 41.6123C2.01823 41.6871 0.801033 42.4168 0.281955 43.3253C0.0307328 43.7648 0 43.903 0 44.5923C0 45.5463 0.257613 46.1491 0.945018 46.8039C1.79473 47.6134 2.97547 48.0041 4.55827 48C5.6204 47.9972 6.13055 47.8781 7.10723 47.4053C9.19436 46.395 11.9578 43.3342 13.6522 40.156C13.8456 39.7934 14.0255 39.4966 14.0522 39.4963C14.0788 39.4961 14.1748 39.6979 14.2652 39.9447C14.603 40.8655 15.6381 41.8271 16.7863 42.2867C17.6491 42.6321 18.6771 42.6362 19.43 42.2977C20.4952 41.8188 21.1709 41.1036 21.4867 40.1206C21.8615 38.9548 21.6444 37.9966 20.8755 37.423C20.4911 37.1364 20.3831 37.1724 20.6627 37.4943C21.4772 38.4316 20.6863 40.2846 19.1635 41.0059C18.5095 41.3158 17.5636 41.3265 16.9067 41.0313C16.2906 40.7547 15.4756 39.9234 15.0793 39.1673C14.7681 38.5735 14.7557 38.5112 14.7557 37.5372C14.7557 36.5272 14.7566 36.5225 15.1596 35.7352C16.0777 33.9412 18.4352 32.1105 21.6122 30.7247C22.2761 30.4352 23.9021 29.8484 25.2253 29.4211C28.3001 28.428 29.1606 28.1264 30.3394 27.6287C33.6018 26.2512 35.3877 24.79 36.1344 22.8874C36.4062 22.1948 36.4948 20.8171 36.3271 19.8964C36.2619 19.5393 36.0869 18.8931 35.9379 18.4602C35.7891 18.0274 35.6673 17.5688 35.6673 17.4411C35.6673 17.1394 36.0179 16.8868 37.2139 16.3272C37.7285 16.0864 38.3819 15.706 38.6658 15.4822L39.1821 15.0749L42.3332 15.6767C44.0663 16.0078 45.4959 16.2675 45.5099 16.2538C45.5241 16.2401 44.1593 15.741 42.4771 15.1444C39.6911 14.1566 39.414 14.0397 39.3682 13.8325C38.9333 11.8721 37.6876 10.8293 35.7806 10.8293C33.8718 10.8293 32.1299 11.8964 31.5378 13.4285C31.2481 14.1784 31.0516 16.0443 31.1838 16.7912C31.2803 17.3369 31.2727 17.428 31.1058 17.7273C30.6709 18.5077 29.1386 19.1713 27.9602 19.0897C26.8518 19.0128 26.2689 18.4556 26.2689 17.4734C26.2689 16.2662 27.2127 15.4504 28.446 15.5918C29.1605 15.6738 29.7463 16.191 29.7463 16.74C29.7463 16.9694 29.5904 16.9861 29.5178 16.7642C29.4378 16.5208 28.944 16.2772 28.4976 16.2613C27.6755 16.2318 27.2086 16.6336 27.2086 17.3705C27.2086 17.7912 27.49 18.0672 28.0164 18.1628C28.6121 18.2711 30.113 17.8305 30.62 17.3986C30.7607 17.2787 30.7787 17.1701 30.7273 16.7494C30.5534 15.3232 29.8758 14.8158 26.8327 13.8333C23.5923 12.787 21.0463 11.1665 18.0451 8.23989C14.912 5.18466 12.8354 1.92057 13.0519 0.391049C13.0823 0.175822 13.0976 -0.000181886 13.0857 1.41065e-07C13.0737 0.000182077 12.937 0.0768993 12.7819 0.170453ZM36.3982 13.0641C36.6697 13.2481 36.6623 13.3615 36.3722 13.4684C36.1829 13.5381 36.0549 13.5068 35.7142 13.3077C35.4817 13.1716 35.2913 13.0292 35.2913 12.9912C35.2913 12.8618 36.187 12.9208 36.3982 13.0641ZM35.6201 20.4476C35.4014 23.1145 33.4672 25.0763 29.3702 26.7864C28.8275 27.0129 27.1315 27.6482 25.6014 28.1981C21.2796 29.7515 19.7277 30.4097 18.1613 31.3536C17.7899 31.5774 17.4506 31.7604 17.4074 31.7604C17.3642 31.7604 17.5323 31.5892 17.7809 31.3798C19.0308 30.3274 21.6329 28.9906 24.718 27.8158C25.7002 27.4419 27.117 26.9026 27.8665 26.6175C30.8759 25.4728 32.7149 24.4424 33.8516 23.2638C34.8585 22.2198 35.2914 21.2345 35.4434 19.6414L35.5158 18.8832L35.5949 19.3383C35.6383 19.5885 35.6497 20.0878 35.6201 20.4476Z" fill="#040D12"/>
<path id="Vector_2" fill-rule="evenodd" clip-rule="evenodd" d="M12.7819 0.170453C11.3516 1.03354 11.2911 2.87895 12.6201 5.11513C14.4709 8.22979 18.5099 11.7953 21.7281 13.1558C22.6416 13.5419 22.4673 13.5672 21.4913 13.19C19.2621 12.3288 16.8705 10.6531 14.2313 8.10301C12.7183 6.6411 11.6604 5.43456 11.1926 4.63726L10.9644 4.24822L10.6633 4.5397C10.3866 4.80772 10.3659 4.86814 10.4076 5.28794C10.4809 6.02737 11.1965 7.31018 12.0005 8.14378C13.8522 10.0637 18.1666 12.9571 21.522 14.5294C22.1943 14.8443 22.7158 15.1031 22.681 15.1042C22.4429 15.1127 20.4361 14.3145 19.1232 13.6894C16.345 12.3663 13.6974 10.7795 12.5088 9.72489C12.0996 9.36186 11.7914 9.16433 11.5825 9.13159C10.3755 8.94191 11.4555 11.1058 13.1114 12.1946C14.5008 13.1082 19.1316 15.124 22.2275 16.1627C22.8735 16.3795 23.3097 16.5581 23.1966 16.5597C22.6115 16.5679 18.5437 15.2794 15.7425 14.1988C14.4203 13.6888 12.6816 12.9037 12.5091 12.739C12.3794 12.6151 12.077 12.8119 12.077 13.0202C12.077 13.586 13.1872 14.7684 14.0733 15.1464C15.0498 15.5628 18.0048 16.2586 22.7914 17.1992C24.4988 17.5347 23.8644 17.4944 20.5356 17.0556C17.6792 16.6792 15.1069 16.2669 14.1683 16.0351C13.3786 15.84 13.3568 15.8651 13.7178 16.5551C14.0955 17.2765 14.4894 17.6168 15.0849 17.7354C16.0243 17.9226 17.537 18.0221 20.7707 18.1096C22.5282 18.1572 24.1565 18.2031 24.3891 18.2118C25.3826 18.2486 21.0738 18.4669 18.1626 18.5273C15.7845 18.5767 14.9906 18.6206 14.9906 18.7031C14.9906 18.8668 15.4541 19.2845 15.8822 19.5067C16.191 19.6667 16.4043 19.7 17.0582 19.6899C17.79 19.6785 21.4387 19.2896 23.8181 18.9695C24.8986 18.8242 25.3702 18.8062 24.906 18.9282C24.751 18.969 22.8795 19.3032 20.7472 19.6708C18.6151 20.0386 16.8704 20.3671 16.8704 20.4009C16.8703 20.4349 17.1117 20.5733 17.4067 20.7084C17.8774 20.924 18.0203 20.9479 18.5716 20.9031C19.3089 20.8432 21.3197 20.4005 24.0091 19.7058C25.0667 19.4327 25.9483 19.225 25.9684 19.2445C25.9988 19.274 23.2313 20.159 19.6193 21.2748C19.1929 21.4066 18.844 21.5402 18.844 21.5721C18.844 21.6762 19.3441 21.8529 19.7811 21.9031C20.0708 21.9363 20.4081 21.8928 20.8193 21.7693C21.6297 21.5262 24.2807 20.5839 25.6078 20.0675C26.1933 19.8395 26.689 19.6692 26.7091 19.6888C26.7502 19.7286 26.275 19.949 23.3356 21.2537C22.2133 21.7519 21.3074 22.2 21.3224 22.2495C21.3606 22.3759 22.0128 22.5535 22.4693 22.562C22.9067 22.57 23.6828 22.2259 25.9868 21.0029C27.8963 19.9893 27.8985 19.9883 27.833 20.0907C27.8021 20.1391 26.9108 20.744 25.8523 21.4348C24.7939 22.1257 23.9531 22.7304 23.9839 22.7786C24.0165 22.8298 24.3326 22.8448 24.745 22.8147C25.8456 22.734 26.4573 22.3947 27.7617 21.1411C28.3521 20.5736 28.8489 20.1226 28.8658 20.1389C28.9434 20.2142 27.7189 21.9033 27.3009 22.2976C26.2552 23.2837 24.8401 23.6289 23.5581 23.2108L22.9621 23.0164L22.5244 23.2626C20.7832 24.2415 18.8972 26.2638 17.5116 28.6376C16.6684 30.0823 15.8957 31.8047 15.1311 33.9446C12.8589 40.3037 9.90758 44.5485 6.62678 46.1762C4.34154 47.31 2.42284 47.0472 1.58919 45.4862C1.02716 44.4339 1.61569 42.7463 2.72632 42.2257C3.30987 41.9521 4.19042 41.9976 4.98121 42.3423L5.54511 42.5879L5.17885 42.272C4.62979 41.7986 3.89793 41.5617 3.13966 41.6123C2.01823 41.6871 0.801033 42.4168 0.281955 43.3253C0.0307328 43.7648 0 43.903 0 44.5923C0 45.5463 0.257613 46.1491 0.945018 46.8039C1.79473 47.6134 2.97547 48.0041 4.55827 48C5.6204 47.9972 6.13055 47.8781 7.10723 47.4053C9.19436 46.395 11.9578 43.3342 13.6522 40.156C13.8456 39.7934 14.0255 39.4966 14.0522 39.4963C14.0788 39.4961 14.1748 39.6979 14.2652 39.9447C14.603 40.8655 15.6381 41.8271 16.7863 42.2867C17.6491 42.6321 18.6771 42.6362 19.43 42.2977C20.4952 41.8188 21.1709 41.1036 21.4867 40.1206C21.8615 38.9548 21.6444 37.9966 20.8755 37.423C20.4911 37.1364 20.3831 37.1724 20.6627 37.4943C21.4772 38.4316 20.6863 40.2846 19.1635 41.0059C18.5095 41.3158 17.5636 41.3265 16.9067 41.0313C16.2906 40.7547 15.4756 39.9234 15.0793 39.1673C14.7681 38.5735 14.7557 38.5112 14.7557 37.5372C14.7557 36.5272 14.7566 36.5225 15.1596 35.7352C16.0777 33.9412 18.4352 32.1105 21.6122 30.7247C22.2761 30.4352 23.9021 29.8484 25.2253 29.4211C28.3001 28.428 29.1606 28.1264 30.3394 27.6287C33.6018 26.2512 35.3877 24.79 36.1344 22.8874C36.4062 22.1948 36.4948 20.8171 36.3271 19.8964C36.2619 19.5393 36.0869 18.8931 35.9379 18.4602C35.7891 18.0274 35.6673 17.5688 35.6673 17.4411C35.6673 17.1394 36.0179 16.8868 37.2139 16.3272C37.7285 16.0864 38.3819 15.706 38.6658 15.4822L39.1821 15.0749L42.3332 15.6767C44.0663 16.0078 45.4959 16.2675 45.5099 16.2538C45.5241 16.2401 44.1593 15.741 42.4771 15.1444C39.6911 14.1566 39.414 14.0397 39.3682 13.8325C38.9333 11.8721 37.6876 10.8293 35.7806 10.8293C33.8718 10.8293 32.1299 11.8964 31.5378 13.4285C31.2481 14.1784 31.0516 16.0443 31.1838 16.7912C31.2803 17.3369 31.2727 17.428 31.1058 17.7273C30.6709 18.5077 29.1386 19.1713 27.9602 19.0897C26.8518 19.0128 26.2689 18.4556 26.2689 17.4734C26.2689 16.2662 27.2127 15.4504 28.446 15.5918C29.1605 15.6738 29.7463 16.191 29.7463 16.74C29.7463 16.9694 29.5904 16.9861 29.5178 16.7642C29.4378 16.5208 28.944 16.2772 28.4976 16.2613C27.6755 16.2318 27.2086 16.6336 27.2086 17.3705C27.2086 17.7912 27.49 18.0672 28.0164 18.1628C28.6121 18.2711 30.113 17.8305 30.62 17.3986C30.7607 17.2787 30.7787 17.1701 30.7273 16.7494C30.5534 15.3232 29.8758 14.8158 26.8327 13.8333C23.5923 12.787 21.0463 11.1665 18.0451 8.23989C14.912 5.18466 12.8354 1.92057 13.0519 0.391049C13.0823 0.175822 13.0976 -0.000181886 13.0857 1.41065e-07C13.0737 0.000182077 12.937 0.0768993 12.7819 0.170453ZM36.3982 13.0641C36.6697 13.2481 36.6623 13.3615 36.3722 13.4684C36.1829 13.5381 36.0549 13.5068 35.7142 13.3077C35.4817 13.1716 35.2913 13.0292 35.2913 12.9912C35.2913 12.8618 36.187 12.9208 36.3982 13.0641ZM35.6201 20.4476C35.4014 23.1145 33.4672 25.0763 29.3702 26.7864C28.8275 27.013 27.1315 27.6482 25.6014 28.1981C21.2796 29.7515 19.7277 30.4097 18.1613 31.3536C17.7899 31.5774 17.4506 31.7604 17.4074 31.7604C17.3642 31.7604 17.5323 31.5892 17.7809 31.3798C19.0308 30.3274 21.6329 28.9906 24.718 27.8158C25.7002 27.4419 27.117 26.9026 27.8665 26.6175C30.8759 25.4728 32.7149 24.4424 33.8516 23.2638C34.8585 22.2198 35.2914 21.2345 35.4434 19.6414L35.5158 18.8832L35.5949 19.3383C35.6383 19.5885 35.6497 20.0878 35.6201 20.4476Z" fill="white"/>
<path id="Vector_3" d="M49.1253 23.9472H58.8791V25.5814H49.1253V23.9472ZM49.3362 33.1653H47.3855V15.2908H60.039V16.9251H49.3362V33.1653ZM60.2396 33.1653L68.6752 15.2908H70.5996L79.0354 33.1653H76.9791L69.2289 16.3889H70.0197L62.2694 33.1653H60.2396ZM63.5611 28.3902L64.1411 26.8582H74.8702L75.4501 28.3902H63.5611ZM84.4511 33.3185C83.4143 33.3185 82.4388 33.0971 81.525 32.6546C80.6287 32.212 79.9082 31.5821 79.3634 30.765L80.4969 29.4883C81.0066 30.2032 81.5953 30.748 82.2631 31.1224C82.931 31.497 83.6691 31.6842 84.4775 31.6842C86.7622 31.6842 87.9045 30.3735 87.9045 27.7519V16.9251H81.1559V15.2908H89.8288V27.6753C89.8288 29.5648 89.372 30.9778 88.458 31.9141C87.5618 32.8504 86.2261 33.3185 84.4511 33.3185ZM97.4198 23.2833H107.174V24.892H97.4198V23.2833ZM97.631 31.531H108.73V33.1653H95.6803V15.2908H108.334V16.9251H97.631V31.531ZM121.278 33.3185C119.889 33.3185 118.606 33.0971 117.428 32.6546C116.251 32.1949 115.232 31.5566 114.371 30.7395C113.509 29.9224 112.834 28.9605 112.341 27.854C111.866 26.7475 111.629 25.5388 111.629 24.2281C111.629 22.9173 111.866 21.7086 112.341 20.6021C112.834 19.4956 113.509 18.5337 114.371 17.7167C115.249 16.8996 116.277 16.2697 117.455 15.8271C118.633 15.3674 119.915 15.1376 121.304 15.1376C122.64 15.1376 123.896 15.359 125.074 15.8015C126.252 16.2272 127.243 16.874 128.052 17.7422L126.813 18.9423C126.058 18.1933 125.223 17.6571 124.308 17.3337C123.395 16.9932 122.411 16.823 121.356 16.823C120.25 16.823 119.221 17.0102 118.272 17.3848C117.324 17.7422 116.497 18.2614 115.794 18.9423C115.091 19.6062 114.538 20.3894 114.133 21.2916C113.747 22.1768 113.554 23.1556 113.554 24.2281C113.554 25.3005 113.747 26.2879 114.133 27.1901C114.538 28.0754 115.091 28.8584 115.794 29.5393C116.497 30.2032 117.324 30.7224 118.272 31.0969C119.221 31.4544 120.25 31.6331 121.356 31.6331C122.411 31.6331 123.395 31.4629 124.308 31.1224C125.223 30.782 126.058 30.2373 126.813 29.4883L128.052 30.6884C127.243 31.5566 126.252 32.212 125.074 32.6546C123.896 33.0971 122.63 33.3185 121.278 33.3185ZM135.564 33.1653V16.9251H129.08V15.2908H144V16.9251H137.515V33.1653H135.564Z" fill="white"/>
<path id="Vector_4" d="M49.1253 23.955H58.8791V25.5892H49.1253V23.955ZM49.3362 33.1731H47.3855V15.2986H60.039V16.9329H49.3362V33.1731ZM60.2396 33.1731L68.6752 15.2986H70.5996L79.0354 33.1731H76.9791L69.2289 16.3967H70.0197L62.2694 33.1731H60.2396ZM63.5611 28.398L64.1411 26.866H74.8702L75.4501 28.398H63.5611ZM84.4511 33.3263C83.4143 33.3263 82.4388 33.1049 81.525 32.6624C80.6287 32.2198 79.9082 31.5899 79.3634 30.7728L80.4969 29.4961C81.0066 30.211 81.5953 30.7558 82.2631 31.1303C82.931 31.5049 83.6691 31.692 84.4775 31.692C86.7622 31.692 87.9045 30.3813 87.9045 27.7597V16.9329H81.1559V15.2986H89.8288V27.6831C89.8288 29.5727 89.372 30.9856 88.458 31.9219C87.5618 32.8582 86.2261 33.3263 84.4511 33.3263ZM97.4198 23.2911H107.174V24.8998H97.4198V23.2911ZM97.631 31.5388H108.73V33.1731H95.6803V15.2986H108.334V16.9329H97.631V31.5388ZM121.278 33.3263C119.889 33.3263 118.606 33.1049 117.428 32.6624C116.251 32.2027 115.232 31.5644 114.371 30.7473C113.509 29.9302 112.834 28.9683 112.341 27.8618C111.866 26.7553 111.629 25.5466 111.629 24.2359C111.629 22.9251 111.866 21.7164 112.341 20.6099C112.834 19.5034 113.509 18.5416 114.371 17.7245C115.249 16.9074 116.277 16.2775 117.455 15.8349C118.633 15.3753 119.915 15.1454 121.304 15.1454C122.64 15.1454 123.896 15.3668 125.074 15.8093C126.252 16.235 127.243 16.8818 128.052 17.75L126.813 18.9501C126.058 18.2011 125.223 17.6649 124.308 17.3415C123.395 17.001 122.411 16.8308 121.356 16.8308C120.25 16.8308 119.221 17.018 118.272 17.3926C117.324 17.75 116.497 18.2692 115.794 18.9501C115.091 19.614 114.538 20.3972 114.133 21.2994C113.747 22.1846 113.554 23.1634 113.554 24.2359C113.554 25.3083 113.747 26.2957 114.133 27.1979C114.538 28.0832 115.091 28.8662 115.794 29.5471C116.497 30.211 117.324 30.7302 118.272 31.1048C119.221 31.4622 120.25 31.6409 121.356 31.6409C122.411 31.6409 123.395 31.4707 124.308 31.1303C125.223 30.7898 126.058 30.2451 126.813 29.4961L128.052 30.6962C127.243 31.5644 126.252 32.2198 125.074 32.6624C123.896 33.1049 122.63 33.3263 121.278 33.3263ZM135.564 33.1731V16.9329H129.08V15.2986H144V16.9329H137.515V33.1731H135.564Z" fill="white"/>
</g>
<defs>
<clipPath id="clip0_602_1225">
<rect width="144" height="48" fill="white"/>
</clipPath>
</defs>
</svg>
