<svg width="254" height="194" viewBox="0 0 254 194" fill="none" xmlns="http://www.w3.org/2000/svg">
<g id="Vector 68">
<path d="M31.2059 19.7586L2.25004 98.2904C0.981481 101.731 2.58298 105.567 5.9212 107.085L15.2766 111.337C16.0847 111.704 16.8156 112.222 17.4303 112.863L87.6238 186.001C87.8741 186.262 88.1395 186.502 88.4318 186.715C94.3439 191.016 105.729 195.33 113.519 186.312C116.53 182.826 121.725 181.064 126.04 182.678C133.467 185.455 142.546 185.737 148.449 177.142C151.221 173.105 156.823 170.955 161.423 172.633C170.479 175.937 181.762 175.691 188.082 162.159C189.749 158.59 193.633 156.401 197.52 157.04C224.254 161.434 224.863 137.531 217 126.893L150.954 56.5082C149.413 54.8663 147.177 54.0657 144.944 54.357L127.886 56.5818C126.34 56.7836 124.892 57.5248 123.763 58.6006C97.4226 83.694 76.5749 67.2464 67.1302 52.5075C65.4352 49.8625 66.1107 46.4349 68.4397 44.3265L107.224 9.21695C109.923 6.77318 109.859 2.75845 106.226 2.51246C93.8594 1.67516 68.4539 13.0675 63.4999 13.8931C60.1382 14.4534 47.3883 15.1136 38.1791 15.0413C35.0987 15.0171 32.2716 16.8683 31.2059 19.7586Z" fill="#9F95FF"/>
<path d="M119.359 51.0402C99.2032 70.6771 84.701 62.9635 77.7972 53.8948C75.8951 51.3963 76.618 47.9453 78.9581 45.8515L111.964 16.3199C112.648 15.708 113.445 15.2366 114.311 14.9324L147.726 3.19212C149.199 2.67438 150.795 2.66133 152.275 3.16021C166.842 8.07023 193.794 17.1176 201 19.3931C207.141 21.3325 222.403 20.7905 233.224 19.9834C237.002 19.7015 240.39 22.3834 240.88 26.1402L251.615 108.44C251.861 110.327 251.328 112.233 250.14 113.718L242.814 122.875C240.234 126.101 235.435 126.402 232.471 123.523L153.538 46.8582C151.942 45.3082 149.704 44.609 147.51 44.9748L123.274 49.0141C121.797 49.2603 120.431 49.9952 119.359 51.0402Z" fill="#9F95FF"/>
<path d="M31.2059 19.7586L2.25004 98.2904C0.981481 101.731 2.58298 105.567 5.9212 107.085L15.2766 111.337C16.0847 111.704 16.8156 112.222 17.4303 112.863L87.6238 186.001C87.8741 186.262 88.1395 186.502 88.4318 186.715C94.3439 191.016 105.729 195.33 113.519 186.312C116.53 182.826 121.725 181.064 126.04 182.678C133.467 185.455 142.546 185.737 148.449 177.142C151.221 173.105 156.823 170.955 161.423 172.633C170.479 175.937 181.762 175.691 188.082 162.159C189.749 158.59 193.633 156.401 197.52 157.04C224.254 161.434 224.863 137.531 217 126.893L150.954 56.5082C149.413 54.8663 147.177 54.0657 144.944 54.357L127.886 56.5818C126.34 56.7836 124.892 57.5248 123.763 58.6006C97.4226 83.694 76.5749 67.2464 67.1302 52.5075C65.4352 49.8625 66.1107 46.4349 68.4397 44.3265L107.224 9.21695C109.923 6.77318 109.859 2.75845 106.226 2.51246C93.8594 1.67516 68.4539 13.0675 63.4999 13.8931C60.1382 14.4534 47.3883 15.1136 38.1791 15.0413C35.0987 15.0171 32.2716 16.8683 31.2059 19.7586Z" stroke="white" stroke-width="3"/>
<path d="M119.359 51.0402C99.2032 70.6771 84.701 62.9635 77.7972 53.8948C75.8951 51.3963 76.618 47.9453 78.9581 45.8515L111.964 16.3199C112.648 15.708 113.445 15.2366 114.311 14.9324L147.726 3.19212C149.199 2.67438 150.795 2.66133 152.275 3.16021C166.842 8.07023 193.794 17.1176 201 19.3931C207.141 21.3325 222.403 20.7905 233.224 19.9834C237.002 19.7015 240.39 22.3834 240.88 26.1402L251.615 108.44C251.861 110.327 251.328 112.233 250.14 113.718L242.814 122.875C240.234 126.101 235.435 126.402 232.471 123.523L153.538 46.8582C151.942 45.3082 149.704 44.609 147.51 44.9748L123.274 49.0141C121.797 49.2603 120.431 49.9952 119.359 51.0402Z" stroke="white" stroke-width="3"/>
</g>
</svg>
