<svg width="25" height="26" viewBox="0 0 25 26" fill="none" xmlns="http://www.w3.org/2000/svg">
<g id="Instagram_logo_2016 1" clip-path="url(#clip0_650_1218)">
<path id="Vector" d="M12.506 0.192627C7.36564 0.192627 5.86228 0.19793 5.57006 0.222172C4.51516 0.309858 3.85874 0.475952 3.14361 0.832001C2.59249 1.10567 2.15785 1.42289 1.72888 1.86758C0.947658 2.67854 0.474188 3.67623 0.302791 4.86218C0.219461 5.43792 0.195219 5.55534 0.190295 8.49616C0.188401 9.47644 0.190295 10.7665 0.190295 12.497C0.190295 17.6332 0.195976 19.135 0.220597 19.4267C0.305822 20.4532 0.466802 21.099 0.8077 21.8054C1.4592 23.1576 2.70348 24.1728 4.16934 24.5515C4.6769 24.6822 5.23749 24.7542 5.95717 24.7883C6.26208 24.8015 9.36994 24.811 12.4797 24.811C15.5894 24.811 18.6992 24.8072 18.9965 24.7921C19.8299 24.7529 20.3137 24.6879 20.8488 24.5496C22.3241 24.169 23.5456 23.169 24.2104 21.7978C24.5447 21.1085 24.7142 20.438 24.7909 19.4651C24.8075 19.253 24.8145 15.8711 24.8145 12.4938C24.8145 9.11584 24.807 5.74019 24.7903 5.52807C24.7127 4.53946 24.5432 3.87471 24.1981 3.17208C23.915 2.59691 23.6006 2.16738 23.1441 1.72819C22.3296 0.95018 21.3334 0.476709 20.1463 0.305502C19.5711 0.222361 19.4566 0.19774 16.5135 0.192627H12.506Z" fill="url(#paint0_radial_650_1218)"/>
<path id="Vector_2" d="M12.506 0.192627C7.36564 0.192627 5.86228 0.19793 5.57006 0.222172C4.51516 0.309858 3.85874 0.475952 3.14361 0.832001C2.59249 1.10567 2.15785 1.42289 1.72888 1.86758C0.947658 2.67854 0.474188 3.67623 0.302791 4.86218C0.219461 5.43792 0.195219 5.55534 0.190295 8.49616C0.188401 9.47644 0.190295 10.7665 0.190295 12.497C0.190295 17.6332 0.195976 19.135 0.220597 19.4267C0.305822 20.4532 0.466802 21.099 0.8077 21.8054C1.4592 23.1576 2.70348 24.1728 4.16934 24.5515C4.6769 24.6822 5.23749 24.7542 5.95717 24.7883C6.26208 24.8015 9.36994 24.811 12.4797 24.811C15.5894 24.811 18.6992 24.8072 18.9965 24.7921C19.8299 24.7529 20.3137 24.6879 20.8488 24.5496C22.3241 24.169 23.5456 23.169 24.2104 21.7978C24.5447 21.1085 24.7142 20.438 24.7909 19.4651C24.8075 19.253 24.8145 15.8711 24.8145 12.4938C24.8145 9.11584 24.807 5.74019 24.7903 5.52807C24.7127 4.53946 24.5432 3.87471 24.1981 3.17208C23.915 2.59691 23.6006 2.16738 23.1441 1.72819C22.3296 0.95018 21.3334 0.476709 20.1463 0.305502C19.5711 0.222361 19.4566 0.19774 16.5135 0.192627H12.506Z" fill="url(#paint1_radial_650_1218)"/>
<path id="Vector_3" d="M12.5003 3.41211C10.0315 3.41211 9.72162 3.4229 8.75196 3.46703C7.78418 3.51135 7.1236 3.66456 6.54558 3.88937C5.94768 4.12156 5.4405 4.43215 4.93522 4.93763C4.42955 5.44292 4.11895 5.9501 3.886 6.54781C3.66063 7.12601 3.50723 7.78679 3.46367 8.75418C3.4203 9.72385 3.40894 10.0339 3.40894 12.5027C3.40894 14.9716 3.41992 15.2805 3.46386 16.2502C3.50836 17.2179 3.66158 17.8785 3.88619 18.4565C4.11857 19.0544 4.42917 19.5616 4.93465 20.0669C5.43975 20.5726 5.94693 20.8839 6.54445 21.1161C7.12284 21.3409 7.78361 21.4941 8.7512 21.5385C9.72087 21.5826 10.0305 21.5934 12.4992 21.5934C14.9682 21.5934 15.2771 21.5826 16.2468 21.5385C17.2146 21.4941 17.8759 21.3409 18.4543 21.1161C19.052 20.8839 19.5584 20.5726 20.0635 20.0669C20.5692 19.5616 20.8798 19.0544 21.1128 18.4567C21.3362 17.8785 21.4896 17.2177 21.5351 16.2504C21.5786 15.2807 21.59 14.9716 21.59 12.5027C21.59 10.0339 21.5786 9.72404 21.5351 8.75437C21.4896 7.7866 21.3362 7.12601 21.1128 6.548C20.8798 5.9501 20.5692 5.44292 20.0635 4.93763C19.5579 4.43196 19.0522 4.12137 18.4537 3.88937C17.8742 3.66456 17.2133 3.51135 16.2455 3.46703C15.2758 3.4229 14.9671 3.41211 12.4975 3.41211H12.5003ZM11.6848 5.05032C11.9269 5.04994 12.1969 5.05032 12.5003 5.05032C14.9275 5.05032 15.2152 5.05903 16.1737 5.10259C17.06 5.14312 17.5411 5.29122 17.8615 5.41565C18.2858 5.58041 18.5882 5.77738 18.9062 6.09555C19.2244 6.41372 19.4213 6.71674 19.5865 7.14097C19.7109 7.46104 19.8592 7.94208 19.8995 8.82842C19.9431 9.78673 19.9526 10.0746 19.9526 12.5007C19.9526 14.9267 19.9431 15.2146 19.8995 16.1729C19.859 17.0592 19.7109 17.5403 19.5865 17.8603C19.4217 18.2846 19.2244 18.5866 18.9062 18.9046C18.588 19.2228 18.2859 19.4198 17.8615 19.5845C17.5415 19.7095 17.06 19.8573 16.1737 19.8978C15.2154 19.9413 14.9275 19.9508 12.5003 19.9508C10.0729 19.9508 9.78526 19.9413 8.82695 19.8978C7.94062 19.8569 7.45957 19.7088 7.13894 19.5843C6.71471 19.4196 6.41169 19.2226 6.09351 18.9044C5.77534 18.5863 5.57838 18.284 5.41323 17.8596C5.2888 17.5395 5.14051 17.0585 5.10017 16.1721C5.05661 15.2138 5.0479 14.926 5.0479 12.4984C5.0479 10.0708 5.05661 9.78445 5.10017 8.82615C5.1407 7.93981 5.2888 7.45877 5.41323 7.13832C5.578 6.71409 5.77534 6.41107 6.09351 6.0929C6.41169 5.77473 6.71471 5.57776 7.13894 5.41262C7.45938 5.28762 7.94062 5.1399 8.82695 5.09918C9.66556 5.0613 9.99055 5.04994 11.6848 5.04804V5.05032ZM17.3528 6.55974C16.7506 6.55974 16.262 7.04779 16.262 7.65024C16.262 8.25249 16.7506 8.74111 17.3528 8.74111C17.9551 8.74111 18.4437 8.25249 18.4437 7.65024C18.4437 7.04798 17.9551 6.55936 17.3528 6.55936V6.55974ZM12.5003 7.83432C9.92218 7.83432 7.83191 9.9246 7.83191 12.5027C7.83191 15.0809 9.92218 17.1702 12.5003 17.1702C15.0785 17.1702 17.168 15.0809 17.168 12.5027C17.168 9.9246 15.0785 7.83432 12.5003 7.83432ZM12.5003 9.47253C14.1738 9.47253 15.5305 10.8291 15.5305 12.5027C15.5305 14.1762 14.1738 15.533 12.5003 15.533C10.8267 15.533 9.47012 14.1762 9.47012 12.5027C9.47012 10.8291 10.8267 9.47253 12.5003 9.47253Z" fill="white"/>
</g>
<defs>
<radialGradient id="paint0_radial_650_1218" cx="0" cy="0" r="1" gradientUnits="userSpaceOnUse" gradientTransform="translate(6.73053 26.7071) rotate(-90) scale(24.3986 22.6988)">
<stop stop-color="#FFDD55"/>
<stop offset="0.1" stop-color="#FFDD55"/>
<stop offset="0.5" stop-color="#FF543E"/>
<stop offset="1" stop-color="#C837AB"/>
</radialGradient>
<radialGradient id="paint1_radial_650_1218" cx="0" cy="0" r="1" gradientUnits="userSpaceOnUse" gradientTransform="translate(-3.93538 1.96609) rotate(78.6776) scale(10.9064 44.968)">
<stop stop-color="#3771C8"/>
<stop offset="0.128" stop-color="#3771C8"/>
<stop offset="1" stop-color="#6600FF" stop-opacity="0"/>
</radialGradient>
<clipPath id="clip0_650_1218">
<rect width="25" height="24.9992" fill="white" transform="translate(0 0.00317383)"/>
</clipPath>
</defs>
</svg>
