<svg width="263" height="272" viewBox="0 0 263 272" fill="none" xmlns="http://www.w3.org/2000/svg">
<mask id="path-1-outside-1_610_1196" maskUnits="userSpaceOnUse" x="106.429" y="0" width="157" height="148" fill="black">
<rect fill="white" x="106.429" width="157" height="148"/>
<path fill-rule="evenodd" clip-rule="evenodd" d="M118.554 3C113.514 3 109.429 7.08564 109.429 12.1255V106.575C109.429 111.615 113.514 115.701 118.554 115.701H221.29C221.308 115.726 221.327 115.752 221.346 115.778L241.921 143.524C243.755 145.996 247.681 144.699 247.681 141.621L247.681 115.701H250.874C255.914 115.701 260 111.615 260 106.575V12.1255C260 7.08565 255.914 3 250.874 3H118.554Z"/>
</mask>
<path fill-rule="evenodd" clip-rule="evenodd" d="M118.554 3C113.514 3 109.429 7.08564 109.429 12.1255V106.575C109.429 111.615 113.514 115.701 118.554 115.701H221.29C221.308 115.726 221.327 115.752 221.346 115.778L241.921 143.524C243.755 145.996 247.681 144.699 247.681 141.621L247.681 115.701H250.874C255.914 115.701 260 111.615 260 106.575V12.1255C260 7.08565 255.914 3 250.874 3H118.554Z" fill="#9F95FF"/>
<path d="M221.29 115.701L223.748 113.981L222.853 112.701H221.29V115.701ZM221.346 115.778L223.755 113.991L223.755 113.991L221.346 115.778ZM241.921 143.524L239.511 145.31V145.311L241.921 143.524ZM247.681 141.621H250.681H247.681ZM247.681 115.701V112.701H244.681V115.701H247.681ZM112.429 12.1255C112.429 8.7425 115.171 6 118.554 6V0C111.857 0 106.429 5.42878 106.429 12.1255H112.429ZM112.429 106.575V12.1255H106.429V106.575H112.429ZM118.554 112.701C115.171 112.701 112.429 109.958 112.429 106.575H106.429C106.429 113.272 111.857 118.701 118.554 118.701V112.701ZM221.29 112.701H118.554V118.701H221.29V112.701ZM218.832 117.42C218.866 117.468 218.9 117.517 218.936 117.565L223.755 113.991C223.753 113.988 223.751 113.984 223.748 113.981L218.832 117.42ZM218.936 117.565L239.511 145.31L244.331 141.737L223.755 113.991L218.936 117.565ZM239.511 145.311C243.067 150.105 250.681 147.59 250.681 141.621H244.681C244.681 141.683 244.671 141.713 244.669 141.719C244.666 141.727 244.664 141.731 244.66 141.736C244.651 141.748 244.616 141.783 244.547 141.805C244.479 141.828 244.43 141.821 244.415 141.817C244.41 141.815 244.406 141.813 244.399 141.809C244.393 141.805 244.368 141.787 244.331 141.737L239.511 145.311ZM250.681 141.621L250.681 115.701H244.681L244.681 141.621H250.681ZM250.874 112.701H247.681V118.701H250.874V112.701ZM257 106.575C257 109.958 254.258 112.701 250.874 112.701V118.701C257.571 118.701 263 113.272 263 106.575H257ZM257 12.1255V106.575H263V12.1255H257ZM250.874 6C254.257 6 257 8.74251 257 12.1255H263C263 5.42878 257.571 0 250.874 0V6ZM118.554 6H250.874V0H118.554V6Z" fill="white" mask="url(#path-1-outside-1_610_1196)"/>
<path d="M201.073 59.3919C201.735 58.8079 202.456 58.2531 203.234 57.7274C204.032 57.2018 204.889 56.7443 205.804 56.3549C206.719 55.9656 207.712 55.6638 208.783 55.4497C209.853 55.2161 211.012 55.0993 212.258 55.0993C213.951 55.0993 215.489 55.3329 216.871 55.8001C218.273 56.2673 219.47 56.939 220.463 57.815C221.456 58.6716 222.225 59.7131 222.77 60.9396C223.315 62.1661 223.588 63.5386 223.588 65.0571C223.588 66.5366 223.374 67.8215 222.945 68.9117C222.517 69.9824 221.982 70.9169 221.339 71.7151C220.697 72.5132 219.986 73.2043 219.208 73.7884C218.448 74.3724 217.728 74.9272 217.047 75.4529C216.365 75.959 215.772 76.4652 215.265 76.9714C214.779 77.4581 214.487 78.0129 214.389 78.6359L213.718 82.8993H208.783L208.286 78.1394C208.169 77.2245 208.296 76.4263 208.666 75.7449C209.055 75.0441 209.561 74.4114 210.184 73.8468C210.827 73.2628 211.537 72.7079 212.316 72.1823C213.095 71.6372 213.825 71.0532 214.506 70.4302C215.188 69.7877 215.752 69.0772 216.2 68.2985C216.667 67.5003 216.901 66.5561 216.901 65.4659C216.901 64.765 216.764 64.1421 216.492 63.597C216.239 63.0324 215.879 62.5554 215.411 62.1661C214.944 61.7573 214.38 61.4458 213.718 61.2316C213.075 61.0175 212.374 60.9104 211.615 60.9104C210.505 60.9104 209.561 61.037 208.783 61.29C208.023 61.5236 207.371 61.7962 206.826 62.1077C206.3 62.3997 205.853 62.6722 205.483 62.9253C205.113 63.1589 204.782 63.2758 204.49 63.2758C203.789 63.2758 203.283 62.9837 202.971 62.3997L201.073 59.3919ZM206.592 93.8208C206.592 93.2173 206.7 92.643 206.914 92.0979C207.147 91.5528 207.459 91.0856 207.848 90.6962C208.237 90.3068 208.705 89.9954 209.25 89.7617C209.795 89.5281 210.379 89.4113 211.002 89.4113C211.625 89.4113 212.199 89.5281 212.725 89.7617C213.27 89.9954 213.737 90.3068 214.127 90.6962C214.535 91.0856 214.857 91.5528 215.09 92.0979C215.324 92.643 215.441 93.2173 215.441 93.8208C215.441 94.4438 215.324 95.0278 215.09 95.5729C214.857 96.0985 214.535 96.556 214.127 96.9454C213.737 97.3347 213.27 97.6365 212.725 97.8506C212.199 98.0842 211.625 98.201 211.002 98.201C210.379 98.201 209.795 98.0842 209.25 97.8506C208.705 97.6365 208.237 97.3347 207.848 96.9454C207.459 96.556 207.147 96.0985 206.914 95.5729C206.7 95.0278 206.592 94.4438 206.592 93.8208Z" fill="white"/>
<path d="M225.834 48.3902C226.33 47.9522 226.87 47.5361 227.454 47.1418C228.053 46.7476 228.696 46.4045 229.382 46.1125C230.068 45.8205 230.813 45.5941 231.616 45.4335C232.419 45.2583 233.288 45.1707 234.222 45.1707C235.492 45.1707 236.646 45.3459 237.682 45.6963C238.734 46.0468 239.632 46.5505 240.376 47.2075C241.121 47.85 241.698 48.6311 242.106 49.551C242.515 50.4708 242.72 51.5002 242.72 52.6391C242.72 53.7487 242.559 54.7124 242.238 55.53C241.917 56.3331 241.515 57.0339 241.033 57.6326C240.551 58.2312 240.019 58.7495 239.435 59.1876C238.865 59.6256 238.325 60.0417 237.814 60.4359C237.303 60.8155 236.857 61.1952 236.478 61.5748C236.113 61.9398 235.894 62.3559 235.821 62.8232L235.317 66.0208H231.616L231.243 62.4508C231.156 61.7646 231.251 61.166 231.528 60.6549C231.82 60.1293 232.2 59.6548 232.667 59.2314C233.149 58.7933 233.682 58.3772 234.266 57.983C234.85 57.5742 235.397 57.1361 235.908 56.6689C236.419 56.1871 236.843 55.6541 237.179 55.0701C237.529 54.4715 237.704 53.7633 237.704 52.9457C237.704 52.42 237.602 51.9528 237.398 51.544C237.208 51.1206 236.938 50.7628 236.587 50.4708C236.237 50.1642 235.814 49.9306 235.317 49.77C234.835 49.6094 234.31 49.5291 233.74 49.5291C232.908 49.5291 232.2 49.624 231.616 49.8138C231.046 49.989 230.557 50.1934 230.148 50.427C229.754 50.646 229.418 50.8505 229.141 51.0403C228.863 51.2155 228.615 51.3031 228.396 51.3031C227.871 51.3031 227.491 51.0841 227.257 50.646L225.834 48.3902ZM229.973 74.2119C229.973 73.7592 230.053 73.3285 230.214 72.9197C230.389 72.5108 230.623 72.1604 230.915 71.8684C231.207 71.5764 231.557 71.3428 231.966 71.1676C232.375 70.9924 232.813 70.9048 233.28 70.9048C233.747 70.9048 234.178 70.9924 234.572 71.1676C234.981 71.3428 235.332 71.5764 235.624 71.8684C235.93 72.1604 236.171 72.5108 236.346 72.9197C236.522 73.3285 236.609 73.7592 236.609 74.2119C236.609 74.6791 236.522 75.1171 236.346 75.5259C236.171 75.9202 235.93 76.2633 235.624 76.5553C235.332 76.8473 234.981 77.0736 234.572 77.2342C234.178 77.4094 233.747 77.497 233.28 77.497C232.813 77.497 232.375 77.4094 231.966 77.2342C231.557 77.0736 231.207 76.8473 230.915 76.5553C230.623 76.2633 230.389 75.9202 230.214 75.5259C230.053 75.1171 229.973 74.6791 229.973 74.2119Z" fill="white"/>
<line x1="187.547" y1="12.1444" x2="221.486" y2="12.1444" stroke="white" stroke-width="4.56277" stroke-linecap="round"/>
<line x1="187.547" y1="21.2699" x2="231.598" y2="21.2699" stroke="white" stroke-width="4.56277" stroke-linecap="round"/>
<line x1="187.547" y1="30.396" x2="231.598" y2="30.396" stroke="white" stroke-width="4.56277" stroke-linecap="round"/>
<line x1="122.281" y1="85.7186" x2="177.947" y2="85.7186" stroke="white" stroke-width="4.56277" stroke-linecap="round"/>
<line x1="122.281" y1="94.8442" x2="193.461" y2="94.8442" stroke="white" stroke-width="4.56277" stroke-linecap="round"/>
<line x1="122.281" y1="103.97" x2="193.461" y2="103.97" stroke="white" stroke-width="4.56277" stroke-linecap="round"/>
<path d="M149.29 14.1553C149.32 14.1058 149.348 14.0844 149.372 14.0716C149.4 14.0562 149.439 14.0447 149.486 14.0447C149.532 14.0447 149.571 14.0562 149.599 14.0716C149.623 14.0844 149.651 14.1058 149.681 14.1553L172.592 52.2746C172.624 52.3269 172.629 52.3628 172.628 52.3887C172.628 52.4212 172.619 52.4624 172.595 52.5045C172.572 52.5465 172.541 52.5756 172.513 52.5924C172.491 52.6059 172.458 52.6203 172.397 52.6203H126.574C126.513 52.6203 126.48 52.6059 126.458 52.5924C126.43 52.5756 126.399 52.5465 126.376 52.5045C126.352 52.4624 126.343 52.4212 126.343 52.3887C126.342 52.3628 126.347 52.3269 126.379 52.2746L149.29 14.1553Z" stroke="white" stroke-width="4.1065"/>
<path d="M149.58 27.6393L149.58 39.5025" stroke="white" stroke-width="5.01905" stroke-linecap="round"/>
<path d="M149.58 45.4336V45.4336" stroke="white" stroke-width="5.01905" stroke-linecap="round"/>
<mask id="path-14-inside-2_610_1196" fill="white">
<path fill-rule="evenodd" clip-rule="evenodd" d="M88.5712 129.621C91.7271 129.621 94.2855 132.179 94.2855 135.335V194.478C94.2855 197.634 91.7271 200.192 88.5712 200.192H24.2393C24.228 200.208 24.2164 200.224 24.2046 200.24L11.3205 217.614C10.1724 219.163 7.71403 218.35 7.71403 216.423V200.192H5.7141C2.55818 200.192 -0.000190735 197.634 -0.000190735 194.478V135.335C-0.000190735 132.179 2.55819 129.621 5.7141 129.621H88.5712Z"/>
</mask>
<path fill-rule="evenodd" clip-rule="evenodd" d="M88.5712 129.621C91.7271 129.621 94.2855 132.179 94.2855 135.335V194.478C94.2855 197.634 91.7271 200.192 88.5712 200.192H24.2393C24.228 200.208 24.2164 200.224 24.2046 200.24L11.3205 217.614C10.1724 219.163 7.71403 218.35 7.71403 216.423V200.192H5.7141C2.55818 200.192 -0.000190735 197.634 -0.000190735 194.478V135.335C-0.000190735 132.179 2.55819 129.621 5.7141 129.621H88.5712Z" fill="#CBC6FD"/>
<path d="M24.2393 200.192L21.781 198.473L22.6766 197.192H24.2393V200.192ZM24.2046 200.24L26.6143 202.027L26.6143 202.027L24.2046 200.24ZM11.3205 217.614L8.91079 215.827V215.827L11.3205 217.614ZM7.71403 200.192V197.192H10.714V200.192H7.71403ZM91.2855 135.335C91.2855 133.836 90.0703 132.621 88.5712 132.621V126.621C93.384 126.621 97.2855 130.522 97.2855 135.335H91.2855ZM91.2855 194.478V135.335H97.2855V194.478H91.2855ZM88.5712 197.192C90.0703 197.192 91.2855 195.977 91.2855 194.478H97.2855C97.2855 199.291 93.384 203.192 88.5712 203.192V197.192ZM24.2393 197.192H88.5712V203.192H24.2393V197.192ZM26.6975 201.912C26.6702 201.951 26.6425 201.989 26.6143 202.027L21.7948 198.453C21.7903 198.459 21.7857 198.466 21.781 198.473L26.6975 201.912ZM26.6143 202.027L13.7302 219.401L8.91079 215.827L21.7949 198.453L26.6143 202.027ZM13.7302 219.401C10.8599 223.272 4.71403 221.242 4.71403 216.423H10.714C10.714 215.459 9.48486 215.053 8.91079 215.827L13.7302 219.401ZM4.71403 216.423V200.192H10.714V216.423H4.71403ZM5.7141 197.192H7.71403V203.192H5.7141V197.192ZM2.99981 194.478C2.99981 195.977 4.21503 197.192 5.7141 197.192V203.192C0.901329 203.192 -3.00019 199.291 -3.00019 194.478H2.99981ZM2.99981 135.335V194.478H-3.00019V135.335H2.99981ZM5.7141 132.621C4.21504 132.621 2.99981 133.836 2.99981 135.335H-3.00019C-3.00019 130.522 0.901337 126.621 5.7141 126.621V132.621ZM88.5712 132.621H5.7141V126.621H88.5712V132.621Z" fill="white" mask="url(#path-14-inside-2_610_1196)"/>
<line x1="15.5349" y1="149.228" x2="49.0357" y2="149.228" stroke="white" stroke-width="4.78486" stroke-linecap="round"/>
<line x1="15.5349" y1="163.514" x2="84.4643" y2="163.514" stroke="white" stroke-width="4.78486" stroke-linecap="round"/>
<line x1="15.5349" y1="177.799" x2="69.6072" y2="177.799" stroke="white" stroke-width="4.78486" stroke-linecap="round"/>
<g filter="url(#filter0_d_610_1196)">
<mask id="path-19-inside-3_610_1196" fill="white">
<path fill-rule="evenodd" clip-rule="evenodd" d="M56.5712 174.195C53.4153 174.195 50.8569 176.753 50.8569 179.909V239.052C50.8569 242.208 53.4153 244.766 56.5712 244.766H120.903C120.914 244.782 120.926 244.798 120.938 244.814L133.822 262.188C134.97 263.737 137.428 262.924 137.428 260.997V244.766H139.428C142.584 244.766 145.143 242.208 145.143 239.052V179.909C145.143 176.753 142.584 174.195 139.428 174.195H56.5712Z"/>
</mask>
<path fill-rule="evenodd" clip-rule="evenodd" d="M56.5712 174.195C53.4153 174.195 50.8569 176.753 50.8569 179.909V239.052C50.8569 242.208 53.4153 244.766 56.5712 244.766H120.903C120.914 244.782 120.926 244.798 120.938 244.814L133.822 262.188C134.97 263.737 137.428 262.924 137.428 260.997V244.766H139.428C142.584 244.766 145.143 242.208 145.143 239.052V179.909C145.143 176.753 142.584 174.195 139.428 174.195H56.5712Z" fill="#9F95FF"/>
<path d="M120.903 244.766L123.361 243.047L122.466 241.766H120.903V244.766ZM120.938 244.814L118.528 246.601L118.528 246.601L120.938 244.814ZM133.822 262.188L136.231 260.401V260.401L133.822 262.188ZM137.428 244.766V241.766H134.428V244.766H137.428ZM53.8569 179.909C53.8569 178.41 55.0722 177.195 56.5712 177.195V171.195C51.7585 171.195 47.8569 175.096 47.8569 179.909H53.8569ZM53.8569 239.052V179.909H47.8569V239.052H53.8569ZM56.5712 241.766C55.0722 241.766 53.8569 240.551 53.8569 239.052H47.8569C47.8569 243.865 51.7585 247.766 56.5712 247.766V241.766ZM120.903 241.766H56.5712V247.766H120.903V241.766ZM118.445 246.486C118.473 246.525 118.5 246.564 118.528 246.601L123.348 243.028C123.352 243.033 123.356 243.039 123.361 243.047L118.445 246.486ZM118.528 246.601L131.412 263.975L136.231 260.401L123.347 243.027L118.528 246.601ZM131.412 263.975C134.282 267.846 140.428 265.816 140.428 260.997H134.428C134.428 260.033 135.657 259.627 136.231 260.401L131.412 263.975ZM140.428 260.997V244.766H134.428V260.997H140.428ZM139.428 241.766H137.428V247.766H139.428V241.766ZM142.143 239.052C142.143 240.551 140.927 241.766 139.428 241.766V247.766C144.241 247.766 148.143 243.865 148.143 239.052H142.143ZM142.143 179.909V239.052H148.143V179.909H142.143ZM139.428 177.195C140.927 177.195 142.143 178.41 142.143 179.909H148.143C148.143 175.096 144.241 171.195 139.428 171.195V177.195ZM56.5712 177.195H139.428V171.195H56.5712V177.195Z" fill="white" mask="url(#path-19-inside-3_610_1196)"/>
<path d="M81.7552 221.774C79.7316 221.774 77.8543 221.445 76.1232 220.787C74.4166 220.129 72.9293 219.202 71.6615 218.007C70.4181 216.813 69.4429 215.411 68.7358 213.802C68.0531 212.193 67.7118 210.437 67.7118 208.535C67.7118 206.634 68.0531 204.878 68.7358 203.269C69.4429 201.66 70.4303 200.258 71.6981 199.063C72.9659 197.869 74.4531 196.942 76.1598 196.284C77.8665 195.626 79.7194 195.297 81.7187 195.297C83.7423 195.297 85.5952 195.626 87.2775 196.284C88.9842 196.942 90.4593 197.869 91.7027 199.063C92.9705 200.258 93.9579 201.66 94.665 203.269C95.372 204.854 95.7255 206.609 95.7255 208.535C95.7255 210.437 95.372 212.205 94.665 213.838C93.9579 215.447 92.9705 216.849 91.7027 218.044C90.4593 219.214 88.9842 220.129 87.2775 220.787C85.5952 221.445 83.7545 221.774 81.7552 221.774ZM81.7187 216.727C82.8646 216.727 83.913 216.532 84.8638 216.142C85.8391 215.752 86.6924 215.191 87.4238 214.46C88.1553 213.729 88.716 212.863 89.1061 211.863C89.5206 210.864 89.7278 209.754 89.7278 208.535C89.7278 207.316 89.5206 206.207 89.1061 205.207C88.716 204.208 88.1553 203.342 87.4238 202.611C86.7168 201.879 85.8756 201.319 84.9004 200.929C83.9252 200.538 82.8646 200.343 81.7187 200.343C80.5728 200.343 79.5122 200.538 78.537 200.929C77.5861 201.319 76.745 201.879 76.0135 202.611C75.2821 203.342 74.7091 204.208 74.2947 205.207C73.9046 206.207 73.7095 207.316 73.7095 208.535C73.7095 209.73 73.9046 210.839 74.2947 211.863C74.7091 212.863 75.2699 213.729 75.977 214.46C76.7084 215.191 77.5617 215.752 78.537 216.142C79.5122 216.532 80.5728 216.727 81.7187 216.727ZM105.481 215.484L105.152 208.645L117.403 195.735H123.986L112.942 207.621L109.65 211.132L105.481 215.484ZM100.178 221.335V195.735H106.066V221.335H100.178ZM117.696 221.335L108.59 210.181L112.466 205.975L124.608 221.335H117.696Z" fill="white"/>
</g>
<defs>
<filter id="filter0_d_610_1196" x="27.7141" y="151.052" width="126.286" height="120.806" filterUnits="userSpaceOnUse" color-interpolation-filters="sRGB">
<feFlood flood-opacity="0" result="BackgroundImageFix"/>
<feColorMatrix in="SourceAlpha" type="matrix" values="0 0 0 0 0 0 0 0 0 0 0 0 0 0 0 0 0 0 127 0" result="hardAlpha"/>
<feOffset dx="-7.14286" dy="-7.14286"/>
<feGaussianBlur stdDeviation="8"/>
<feComposite in2="hardAlpha" operator="out"/>
<feColorMatrix type="matrix" values="0 0 0 0 0.0156863 0 0 0 0 0.0509804 0 0 0 0 0.0705882 0 0 0 0.36 0"/>
<feBlend mode="normal" in2="BackgroundImageFix" result="effect1_dropShadow_610_1196"/>
<feBlend mode="normal" in="SourceGraphic" in2="effect1_dropShadow_610_1196" result="shape"/>
</filter>
</defs>
</svg>
