<svg width="25" height="26" viewBox="0 0 25 26" fill="none" xmlns="http://www.w3.org/2000/svg">
<g id="Telegram_logo 1" clip-path="url(#clip0_650_1222)">
<path id="Vector" d="M12.5 25.0032C19.4036 25.0032 25 19.4067 25 12.5032C25 5.59961 19.4036 0.00317383 12.5 0.00317383C5.59644 0.00317383 0 5.59961 0 12.5032C0 19.4067 5.59644 25.0032 12.5 25.0032Z" fill="url(#paint0_linear_650_1222)"/>
<path id="Vector_2" d="M8.46143 13.4169L9.94445 17.5217C9.94445 17.5217 10.1299 17.9058 10.3284 17.9058C10.5269 17.9058 13.48 14.8337 13.48 14.8337L16.7638 8.49097L8.51434 12.3573L8.46143 13.4169Z" fill="#C8DAEA"/>
<path id="Vector_3" d="M10.4276 14.4697L10.1429 17.4954C10.1429 17.4954 10.0238 18.4224 10.9506 17.4954C11.8775 16.5683 12.7647 15.8534 12.7647 15.8534" fill="#A9C6D8"/>
<path id="Vector_4" d="M8.4881 13.5635L5.43747 12.5695C5.43747 12.5695 5.07289 12.4216 5.19028 12.0862C5.21445 12.017 5.2632 11.9582 5.40903 11.857C6.08497 11.3859 17.9201 7.13202 17.9201 7.13202C17.9201 7.13202 18.2542 7.01941 18.4513 7.09431C18.5001 7.1094 18.544 7.13717 18.5785 7.17478C18.613 7.2124 18.6368 7.2585 18.6477 7.30837C18.669 7.39646 18.6779 7.48709 18.6741 7.57764C18.6732 7.65597 18.6637 7.72858 18.6565 7.84243C18.5844 9.00545 16.4274 17.6855 16.4274 17.6855C16.4274 17.6855 16.2983 18.1934 15.8359 18.2108C15.7223 18.2144 15.6091 18.1952 15.503 18.1542C15.397 18.1132 15.3003 18.0512 15.2187 17.972C14.3113 17.1915 11.1751 15.0838 10.4821 14.6202C10.4664 14.6096 10.4533 14.5957 10.4434 14.5795C10.4336 14.5634 10.4274 14.5453 10.4252 14.5265C10.4155 14.4776 10.4686 14.4171 10.4686 14.4171C10.4686 14.4171 15.9297 9.56295 16.075 9.05337C16.0862 9.01389 16.0437 8.99441 15.9866 9.0117C15.6239 9.14514 9.33622 13.1159 8.64226 13.5541C8.59231 13.5692 8.53951 13.5724 8.4881 13.5635Z" fill="white"/>
</g>
<defs>
<linearGradient id="paint0_linear_650_1222" x1="12.5" y1="25.0032" x2="12.5" y2="0.00317383" gradientUnits="userSpaceOnUse">
<stop stop-color="#1D93D2"/>
<stop offset="1" stop-color="#38B0E3"/>
</linearGradient>
<clipPath id="clip0_650_1222">
<rect width="25" height="25" fill="white" transform="translate(0 0.00317383)"/>
</clipPath>
</defs>
</svg>
