<svg width="26" height="26" viewBox="0 0 26 26" fill="none" xmlns="http://www.w3.org/2000/svg">
<g id="Union">
<path id="Union_2" fill-rule="evenodd" clip-rule="evenodd" d="M5.6553 2.88367C5.97364 3.31286 6.27159 3.7568 6.54816 4.21403C7.39995 5.62474 8.18923 7.41224 8.35709 9.34438C8.57673 11.8855 10.0946 13.4783 12.0178 13.4997C12.2308 13.498 12.4367 13.4237 12.6017 13.289C12.7482 13.1658 12.7749 13.0604 12.7749 12.9944C12.7732 12.7801 12.7392 12.539 12.6767 12.298C12.4367 11.4334 12.5127 10.5116 12.891 9.69795C13.5017 8.3926 14.4089 7.58545 15.2803 6.98902C15.6499 6.73545 16.0321 6.50688 16.3678 6.30688L16.4999 6.2301C16.8839 5.99974 17.2035 5.80153 17.4928 5.58724C18.1428 5.10331 18.4999 4.75331 18.5857 4.61581C19.0093 3.89696 19.2997 3.10751 19.4428 2.28546C17.5624 1.15153 15.3571 0.499742 12.9999 0.499742C10.3609 0.495393 7.78876 1.33025 5.6553 2.88367ZM22.6374 20.9622C22.2214 21.0158 21.7785 21.0462 21.3071 21.0515H21.2696C20.602 21.0727 19.9384 21.1624 19.2892 21.3194C18.1178 21.6069 17.2499 22.0908 16.9071 22.7372C16.5053 23.4926 16.4517 24.3122 16.5339 24.9926C18.9244 24.2871 21.0498 22.8837 22.6374 20.9622ZM3.44286 4.94271C1.60714 7.11771 0.5 9.92842 0.5 12.9999C0.50067 14.6895 0.843728 16.3614 1.50846 17.9148C2.1732 19.4682 3.14583 20.8707 4.36762 22.0378C5.58942 23.2048 7.03505 24.1122 8.61723 24.7051C10.1994 25.298 11.8853 25.5641 13.5732 25.4873C13.3982 24.2695 13.4875 22.7802 14.2554 21.332C15.2304 19.4945 17.2161 18.7373 18.5714 18.4052C19.3807 18.2088 20.2073 18.0921 21.0393 18.057L21.2107 18.0516H21.2768C23.3803 18.0302 24.2286 17.3552 24.6518 16.807C24.8913 16.4947 25.0744 16.143 25.1928 15.7677C25.3928 14.8749 25.5 13.9499 25.5 12.9999C25.5044 9.76421 24.2498 6.65378 22.0018 4.32664C21.7625 5.02664 21.4536 5.69986 21.1196 6.22485C20.6964 6.88914 19.9018 7.53378 19.2857 7.99271C18.8625 8.307 18.425 8.57307 18.0393 8.80343L17.9018 8.88557C17.5589 9.08914 17.2625 9.26771 16.9768 9.46414C16.3625 9.88378 15.9125 10.3177 15.6089 10.9677C15.5278 11.1444 15.5157 11.3451 15.575 11.5302C15.6929 11.9731 15.775 12.4731 15.775 12.9856C15.7803 15.2284 13.7 16.5177 11.9839 16.4998C8.0125 16.4552 5.67143 13.1213 5.36785 9.60342C5.25357 8.29271 4.69821 6.94985 3.98036 5.76414C3.80536 5.47307 3.625 5.19807 3.44286 4.94271Z" fill="white"/>
</g>
</svg>
