<svg width="19" height="19" viewBox="0 0 19 19" fill="none" xmlns="http://www.w3.org/2000/svg">
<g id="WA_Logo">
<g id="Group">
<path id="Vector" fill-rule="evenodd" clip-rule="evenodd" d="M16.061 3.04906C14.3896 1.37563 12.1667 0.453659 9.79852 0.452637C4.91879 0.452637 0.947244 4.42393 0.945285 9.30519C0.944688 10.8655 1.35227 12.3885 2.12706 13.7312L0.871094 18.3187L5.56428 17.0876C6.85738 17.7929 8.31326 18.1647 9.79494 18.1652H9.79861C14.6778 18.1652 18.6497 14.1934 18.6518 9.31209C18.6526 6.94667 17.7325 4.7224 16.061 3.04906ZM9.79861 16.6701H9.79562C8.47527 16.6696 7.18021 16.3148 6.05048 15.6444L5.78174 15.485L2.99673 16.2155L3.74009 13.5002L3.56513 13.2216C2.82859 12.0502 2.43949 10.6961 2.44009 9.30562C2.44171 5.24855 5.74264 1.94787 9.80159 1.94787C11.7669 1.94855 13.6145 2.7149 15.0038 4.10587C16.3931 5.49676 17.1576 7.34548 17.1569 9.31167C17.1553 13.3691 13.8543 16.6701 9.79861 16.6701ZM13.8348 11.1589C13.6136 11.0483 12.5261 10.5131 12.3233 10.4393C12.1206 10.3656 11.9731 10.3286 11.8256 10.5501C11.6782 10.7715 11.2541 11.2698 11.1251 11.4175C10.9961 11.565 10.867 11.5836 10.6459 11.4727C10.4246 11.3621 9.71189 11.1284 8.86692 10.3748C8.20934 9.78824 7.76539 9.06388 7.63634 8.84233C7.5073 8.62087 7.62254 8.50119 7.73336 8.39088C7.83285 8.29173 7.95457 8.13245 8.06522 8.00332C8.17586 7.87419 8.21266 7.78185 8.28643 7.63424C8.36019 7.48662 8.32331 7.35741 8.26794 7.24676C8.21266 7.13594 7.77024 6.0471 7.58591 5.60417C7.40636 5.17291 7.22399 5.23126 7.08821 5.22444C6.95934 5.21805 6.81172 5.21661 6.66419 5.21661C6.51675 5.21661 6.27714 5.27197 6.07433 5.49344C5.8716 5.7149 5.30014 6.25008 5.30014 7.33892C5.30014 8.42777 6.09273 9.47955 6.20338 9.62725C6.31394 9.77487 7.76326 12.0092 9.98225 12.9675C10.5099 13.1954 10.922 13.3314 11.2433 13.4335C11.7733 13.6019 12.2555 13.578 12.6366 13.5211C13.0616 13.4576 13.9454 12.9859 14.1297 12.4692C14.314 11.9525 14.314 11.5095 14.2587 11.4173C14.2035 11.3251 14.056 11.2698 13.8348 11.1589Z" fill="white"/>
</g>
</g>
</svg>
